<?xml version="1.0" encoding="UTF-8"?>
<svg xmlns="http://www.w3.org/2000/svg" xmlns:xlink="http://www.w3.org/1999/xlink" width="32px" height="32px" viewBox="0 0 32 32" version="1.1">
  <circle cx="16" cy="16" r="16" fill="white" />
  <g id="surface1">
    <path style=" stroke:none;fill-rule:nonzero;fill:rgb(0%,0%,0%);fill-opacity:1;" d="M 12.6875 1.113281 C 12.59375 1.144531 11.519531 1.824219 11.175781 2.070312 C 11.082031 2.132812 10.988281 2.1875 10.96875 2.1875 C 10.949219 2.1875 10.855469 2.238281 10.761719 2.304688 C 10.667969 2.367188 10.398438 2.542969 10.164062 2.695312 C 9.929688 2.84375 9.769531 2.976562 9.804688 2.988281 C 9.835938 3 10.105469 2.960938 10.386719 2.914062 C 10.675781 2.855469 11.0625 2.78125 11.25 2.75 C 13.082031 2.429688 13.125 2.429688 12.8125 2.789062 C 12.601562 3.03125 12.601562 3.023438 12.78125 3.65625 C 12.980469 4.34375 13.199219 5.113281 13.289062 5.4375 C 13.449219 6.039062 13.5 6.101562 13.820312 6.070312 C 14.351562 6.023438 14.519531 6.03125 14.539062 6.09375 C 14.550781 6.125 14.320312 6.304688 14.03125 6.492188 C 13.4375 6.867188 13.480469 6.804688 12.617188 8.6875 C 11.648438 10.820312 11.601562 10.90625 11.261719 11.164062 C 11.085938 11.300781 10.769531 11.511719 10.550781 11.648438 C 10.335938 11.78125 10.054688 11.957031 9.9375 12.03125 C 9.429688 12.355469 8.960938 12.65625 8.863281 12.71875 C 8.332031 13.03125 7.636719 13.480469 7.570312 13.550781 C 7.488281 13.632812 7.5 13.636719 7.664062 13.601562 C 7.761719 13.582031 8 13.53125 8.1875 13.5 C 9.132812 13.34375 10.820312 13.050781 11.65625 12.90625 C 13.429688 12.601562 13.976562 12.507812 15.46875 12.25 C 17.175781 11.960938 18.460938 11.738281 19.28125 11.59375 C 19.59375 11.539062 20 11.46875 20.1875 11.4375 C 20.375 11.40625 20.789062 11.335938 21.09375 11.28125 C 21.40625 11.226562 21.8125 11.15625 22 11.125 C 22.507812 11.050781 24.195312 10.757812 24.375 10.710938 C 24.492188 10.679688 24.375 10.636719 23.90625 10.523438 C 23.195312 10.355469 22.113281 10.105469 21.46875 9.960938 C 21.230469 9.90625 20.929688 9.835938 20.8125 9.8125 C 20.695312 9.78125 20.398438 9.710938 20.15625 9.65625 C 19.042969 9.398438 19.09375 9.429688 18.667969 8.65625 C 18.519531 8.382812 18.257812 7.898438 18.082031 7.59375 C 17.710938 6.9375 17.53125 6.605469 17.25 6.09375 C 16.945312 5.53125 16.789062 5.257812 16.554688 4.84375 C 16.398438 4.5625 15.917969 4.050781 14.667969 2.8125 C 13.742188 1.898438 12.945312 1.136719 12.882812 1.117188 C 12.824219 1.101562 12.738281 1.09375 12.6875 1.113281 Z M 13.75 8.023438 C 13.75 8.132812 13.554688 9.820312 13.523438 9.949219 C 13.507812 10.042969 13.449219 10.15625 13.394531 10.199219 C 13.28125 10.292969 12.679688 10.445312 12.613281 10.398438 C 12.492188 10.324219 12.59375 10.007812 13.042969 9.039062 C 13.40625 8.25 13.550781 8 13.636719 8 C 13.699219 8 13.75 8.011719 13.75 8.023438 Z M 13.75 8.023438 "/>
    <path style=" stroke:none;fill-rule:nonzero;fill:rgb(0%,0%,0%);fill-opacity:1;" d="M 14.644531 12.917969 C 14.519531 13.085938 14.300781 13.34375 14.15625 13.507812 C 14.019531 13.664062 13.636719 14.105469 13.3125 14.5 C 12.988281 14.894531 12.582031 15.367188 12.40625 15.5625 C 12.238281 15.757812 11.84375 16.21875 11.53125 16.59375 C 11.226562 16.96875 10.8125 17.445312 10.625 17.65625 C 10.4375 17.867188 10.03125 18.351562 9.71875 18.71875 C 9.414062 19.09375 9.050781 19.519531 8.914062 19.667969 C 8.625 19.988281 8.695312 20.019531 9.070312 19.730469 C 9.21875 19.613281 9.523438 19.394531 9.742188 19.242188 C 9.960938 19.09375 10.367188 18.804688 10.648438 18.613281 C 10.925781 18.414062 11.382812 18.09375 11.65625 17.90625 C 12.195312 17.53125 12.550781 17.28125 13.519531 16.59375 C 13.863281 16.351562 14.199219 16.113281 14.269531 16.0625 C 14.34375 16.011719 14.695312 15.769531 15.042969 15.519531 C 15.835938 14.957031 15.914062 14.917969 16.09375 14.960938 C 16.273438 15.007812 17.324219 15.992188 17.273438 16.070312 C 17.210938 16.167969 17.042969 16.125 16.820312 15.949219 C 16.382812 15.617188 16.09375 15.4375 15.980469 15.4375 C 15.917969 15.4375 15.65625 15.585938 15.398438 15.761719 C 15.136719 15.945312 14.78125 16.195312 14.605469 16.3125 C 14.429688 16.429688 14.207031 16.59375 14.101562 16.675781 C 13.992188 16.75 13.773438 16.898438 13.617188 17 C 13.207031 17.269531 13.175781 17.367188 13.320312 18.039062 C 13.5 18.867188 13.757812 20.117188 13.8125 20.4375 C 13.84375 20.59375 14.039062 21.550781 14.25 22.5625 C 14.457031 23.574219 14.84375 25.429688 15.101562 26.6875 C 15.355469 27.945312 15.59375 29.09375 15.632812 29.25 C 15.664062 29.40625 15.710938 29.667969 15.75 29.84375 C 15.9375 30.84375 15.957031 30.917969 16.023438 30.707031 C 16.054688 30.605469 16.570312 28.101562 16.6875 27.46875 C 16.710938 27.332031 16.78125 27.007812 16.835938 26.75 C 16.898438 26.492188 16.96875 26.136719 17.007812 25.96875 C 17.039062 25.792969 17.132812 25.320312 17.21875 24.90625 C 17.304688 24.492188 17.40625 24.011719 17.4375 23.84375 C 17.46875 23.667969 17.5625 23.207031 17.648438 22.8125 C 17.730469 22.417969 17.863281 21.78125 17.9375 21.40625 C 18.011719 21.023438 18.136719 20.394531 18.226562 20 C 18.457031 18.914062 18.488281 18.75 18.570312 18.34375 C 18.6875 17.757812 18.730469 17.742188 19.164062 18.199219 C 19.363281 18.417969 19.855469 18.976562 20.25 19.4375 C 20.644531 19.898438 21.113281 20.429688 21.289062 20.625 C 22.039062 21.449219 22.6875 22.242188 22.6875 22.34375 C 22.6875 22.53125 23.117188 23.0625 23.269531 23.0625 C 23.457031 23.0625 24.125 22.519531 24.125 22.367188 C 24.125 22.238281 23.710938 21.75 23.601562 21.75 C 23.5625 21.75 23.425781 21.820312 23.300781 21.90625 C 23.175781 21.992188 23.03125 22.042969 22.980469 22.023438 C 22.898438 21.992188 22.648438 21.71875 21.625 20.53125 C 21.4375 20.304688 21.03125 19.84375 20.71875 19.492188 C 20.414062 19.144531 19.945312 18.613281 19.6875 18.3125 C 19.429688 18.011719 19.023438 17.550781 18.789062 17.289062 C 18.4375 16.894531 18.375 16.792969 18.4375 16.71875 C 18.5 16.644531 18.570312 16.675781 18.90625 16.925781 C 19.125 17.085938 19.632812 17.445312 20.023438 17.71875 C 20.425781 17.992188 20.898438 18.324219 21.082031 18.449219 C 21.257812 18.582031 21.492188 18.742188 21.59375 18.820312 C 22.492188 19.4375 22.980469 19.789062 23.050781 19.855469 C 23.132812 19.9375 23.25 19.96875 23.25 19.90625 C 23.25 19.886719 23.085938 19.695312 22.894531 19.476562 C 22.695312 19.261719 22.261719 18.769531 21.9375 18.382812 C 21.613281 17.992188 21.207031 17.511719 21.03125 17.320312 C 20.863281 17.117188 20.46875 16.65625 20.15625 16.28125 C 19.851562 15.90625 19.457031 15.445312 19.28125 15.25 C 19.113281 15.054688 18.730469 14.617188 18.445312 14.273438 C 17.25 12.855469 17.042969 12.625 16.957031 12.625 C 16.90625 12.625 16.695312 12.78125 16.480469 12.96875 C 16.273438 13.15625 16.050781 13.3125 15.980469 13.3125 C 15.917969 13.3125 15.695312 13.15625 15.480469 12.96875 C 15.273438 12.78125 15.054688 12.625 14.992188 12.625 C 14.929688 12.625 14.773438 12.757812 14.644531 12.917969 Z M 14.78125 17.449219 C 14.820312 17.730469 14.898438 18.554688 15 19.71875 C 15.03125 20.09375 15.105469 20.84375 15.15625 21.375 C 15.210938 21.90625 15.28125 22.667969 15.3125 23.0625 C 15.351562 23.457031 15.394531 23.867188 15.414062 23.980469 C 15.449219 24.195312 15.398438 24.4375 15.3125 24.4375 C 15.28125 24.4375 15.242188 24.363281 15.226562 24.261719 C 14.914062 22.6875 14.664062 21.457031 14.492188 20.6875 C 14.386719 20.199219 14.175781 19.105469 14.117188 18.800781 C 14.09375 18.632812 14.054688 18.476562 14.039062 18.449219 C 14.019531 18.417969 14 18.199219 13.992188 17.96875 C 13.980469 17.550781 13.988281 17.53125 14.195312 17.363281 C 14.304688 17.261719 14.476562 17.1875 14.574219 17.1875 C 14.726562 17.1875 14.742188 17.210938 14.78125 17.449219 Z M 14.78125 17.449219 "/>
  </g>
</svg>
